<mxfile host="Electron" modified="2023-11-15T19:14:51.277Z" agent="Mozilla/5.0 (X11; Linux x86_64) AppleWebKit/537.36 (KHTML, like Gecko) draw.io/22.0.3 Chrome/114.0.5735.289 Electron/25.8.4 Safari/537.36" etag="XUIqIu8OpdlPROT1qVV0" version="22.0.3" type="device">
  <diagram name="Page-1" id="s8d-PY-8PvL_5b7Q-GFM">
    <mxGraphModel dx="1793" dy="1211" grid="1" gridSize="10" guides="1" tooltips="1" connect="1" arrows="1" fold="1" page="1" pageScale="1" pageWidth="1169" pageHeight="827" math="0" shadow="0">
      <root>
        <mxCell id="0" />
        <mxCell id="1" parent="0" />
        <mxCell id="xjq-RaSwt1K4UF-zuiTi-3" value="pulceo-node-agent" style="swimlane;html=1;startSize=20;fontStyle=0;collapsible=0;horizontal=0;swimlaneLine=1;swimlaneFillColor=#ffffff;strokeWidth=2;whiteSpace=wrap;" vertex="1" parent="1">
          <mxGeometry x="40" y="340" width="1440" height="570" as="geometry" />
        </mxCell>
        <mxCell id="xjq-RaSwt1K4UF-zuiTi-13" value="" style="edgeStyle=orthogonalEdgeStyle;rounded=0;orthogonalLoop=1;jettySize=auto;html=1;" edge="1" parent="xjq-RaSwt1K4UF-zuiTi-3" source="xjq-RaSwt1K4UF-zuiTi-5" target="xjq-RaSwt1K4UF-zuiTi-12">
          <mxGeometry relative="1" as="geometry" />
        </mxCell>
        <mxCell id="xjq-RaSwt1K4UF-zuiTi-5" value="" style="points=[[0.145,0.145,0],[0.5,0,0],[0.855,0.145,0],[1,0.5,0],[0.855,0.855,0],[0.5,1,0],[0.145,0.855,0],[0,0.5,0]];shape=mxgraph.bpmn.event;html=1;verticalLabelPosition=bottom;labelBackgroundColor=#ffffff;verticalAlign=top;align=center;perimeter=ellipsePerimeter;outlineConnect=0;aspect=fixed;outline=standard;symbol=general;" vertex="1" parent="xjq-RaSwt1K4UF-zuiTi-3">
          <mxGeometry x="50" y="89" width="50" height="50" as="geometry" />
        </mxCell>
        <mxCell id="xjq-RaSwt1K4UF-zuiTi-15" value="" style="edgeStyle=orthogonalEdgeStyle;rounded=0;orthogonalLoop=1;jettySize=auto;html=1;" edge="1" parent="xjq-RaSwt1K4UF-zuiTi-3" source="xjq-RaSwt1K4UF-zuiTi-12" target="xjq-RaSwt1K4UF-zuiTi-14">
          <mxGeometry relative="1" as="geometry" />
        </mxCell>
        <mxCell id="xjq-RaSwt1K4UF-zuiTi-12" value="Run pulceo-node-agent" style="rounded=1;whiteSpace=wrap;html=1;verticalAlign=top;labelBackgroundColor=#ffffff;" vertex="1" parent="xjq-RaSwt1K4UF-zuiTi-3">
          <mxGeometry x="145" y="84" width="120" height="60" as="geometry" />
        </mxCell>
        <mxCell id="xjq-RaSwt1K4UF-zuiTi-19" value="False" style="edgeStyle=orthogonalEdgeStyle;rounded=0;orthogonalLoop=1;jettySize=auto;html=1;" edge="1" parent="xjq-RaSwt1K4UF-zuiTi-3" source="xjq-RaSwt1K4UF-zuiTi-14" target="xjq-RaSwt1K4UF-zuiTi-18">
          <mxGeometry relative="1" as="geometry" />
        </mxCell>
        <mxCell id="xjq-RaSwt1K4UF-zuiTi-14" value="File with &lt;b&gt;pna.id&lt;/b&gt; present?" style="rhombus;whiteSpace=wrap;html=1;verticalAlign=top;rounded=1;labelBackgroundColor=#ffffff;labelPosition=center;verticalLabelPosition=bottom;align=center;" vertex="1" parent="xjq-RaSwt1K4UF-zuiTi-3">
          <mxGeometry x="350" y="74" width="80" height="80" as="geometry" />
        </mxCell>
        <mxCell id="xjq-RaSwt1K4UF-zuiTi-21" value="" style="edgeStyle=orthogonalEdgeStyle;rounded=0;orthogonalLoop=1;jettySize=auto;html=1;" edge="1" parent="xjq-RaSwt1K4UF-zuiTi-3" source="xjq-RaSwt1K4UF-zuiTi-18" target="xjq-RaSwt1K4UF-zuiTi-20">
          <mxGeometry relative="1" as="geometry" />
        </mxCell>
        <mxCell id="xjq-RaSwt1K4UF-zuiTi-18" value="Generate &lt;b&gt;pna.id&lt;/b&gt;" style="rounded=1;whiteSpace=wrap;html=1;verticalAlign=top;labelBackgroundColor=#ffffff;" vertex="1" parent="xjq-RaSwt1K4UF-zuiTi-3">
          <mxGeometry x="505" y="84" width="120" height="60" as="geometry" />
        </mxCell>
        <mxCell id="xjq-RaSwt1K4UF-zuiTi-23" value="" style="edgeStyle=orthogonalEdgeStyle;rounded=0;orthogonalLoop=1;jettySize=auto;html=1;" edge="1" parent="xjq-RaSwt1K4UF-zuiTi-3" source="xjq-RaSwt1K4UF-zuiTi-20" target="xjq-RaSwt1K4UF-zuiTi-22">
          <mxGeometry relative="1" as="geometry" />
        </mxCell>
        <mxCell id="xjq-RaSwt1K4UF-zuiTi-20" value="Save &lt;b&gt;pna.id&lt;/b&gt; in local file system" style="rounded=1;whiteSpace=wrap;html=1;verticalAlign=top;labelBackgroundColor=#ffffff;" vertex="1" parent="xjq-RaSwt1K4UF-zuiTi-3">
          <mxGeometry x="705" y="84" width="120" height="60" as="geometry" />
        </mxCell>
        <mxCell id="xjq-RaSwt1K4UF-zuiTi-27" value="" style="edgeStyle=orthogonalEdgeStyle;rounded=0;orthogonalLoop=1;jettySize=auto;html=1;entryX=0;entryY=0.5;entryDx=0;entryDy=0;" edge="1" parent="xjq-RaSwt1K4UF-zuiTi-3" source="xjq-RaSwt1K4UF-zuiTi-22" target="xjq-RaSwt1K4UF-zuiTi-28">
          <mxGeometry relative="1" as="geometry">
            <mxPoint x="1105.0000000000005" y="114" as="targetPoint" />
          </mxGeometry>
        </mxCell>
        <mxCell id="xjq-RaSwt1K4UF-zuiTi-22" value="Generate &lt;b&gt;pna.token&lt;/b&gt;" style="rounded=1;whiteSpace=wrap;html=1;verticalAlign=top;labelBackgroundColor=#ffffff;" vertex="1" parent="xjq-RaSwt1K4UF-zuiTi-3">
          <mxGeometry x="905" y="84" width="120" height="60" as="geometry" />
        </mxCell>
        <mxCell id="xjq-RaSwt1K4UF-zuiTi-28" value="Wait for registration by pulceo-resource-manager" style="rounded=1;whiteSpace=wrap;html=1;verticalAlign=top;labelBackgroundColor=#ffffff;" vertex="1" parent="xjq-RaSwt1K4UF-zuiTi-3">
          <mxGeometry x="1110" y="84" width="120" height="60" as="geometry" />
        </mxCell>
        <mxCell id="xjq-RaSwt1K4UF-zuiTi-2" value="pulceo-resource manager" style="swimlane;html=1;startSize=20;fontStyle=0;collapsible=0;horizontal=0;swimlaneLine=1;swimlaneFillColor=#ffffff;strokeWidth=2;whiteSpace=wrap;" vertex="1" parent="1">
          <mxGeometry x="40" y="80" width="1440" height="220" as="geometry" />
        </mxCell>
        <mxCell id="xjq-RaSwt1K4UF-zuiTi-31" value="" style="edgeStyle=orthogonalEdgeStyle;rounded=0;orthogonalLoop=1;jettySize=auto;html=1;" edge="1" parent="xjq-RaSwt1K4UF-zuiTi-2" source="xjq-RaSwt1K4UF-zuiTi-29" target="xjq-RaSwt1K4UF-zuiTi-30">
          <mxGeometry relative="1" as="geometry" />
        </mxCell>
        <mxCell id="xjq-RaSwt1K4UF-zuiTi-29" value="" style="points=[[0.145,0.145,0],[0.5,0,0],[0.855,0.145,0],[1,0.5,0],[0.855,0.855,0],[0.5,1,0],[0.145,0.855,0],[0,0.5,0]];shape=mxgraph.bpmn.event;html=1;verticalLabelPosition=bottom;labelBackgroundColor=#ffffff;verticalAlign=top;align=center;perimeter=ellipsePerimeter;outlineConnect=0;aspect=fixed;outline=standard;symbol=general;" vertex="1" parent="xjq-RaSwt1K4UF-zuiTi-2">
          <mxGeometry x="40" y="85" width="50" height="50" as="geometry" />
        </mxCell>
        <mxCell id="xjq-RaSwt1K4UF-zuiTi-30" value="Obtain &lt;b&gt;pna.endpoint&lt;/b&gt;, &lt;b&gt;pna.port&lt;/b&gt;, and &lt;b&gt;pna.token&lt;/b&gt;" style="rounded=1;whiteSpace=wrap;html=1;verticalAlign=top;labelBackgroundColor=#ffffff;" vertex="1" parent="xjq-RaSwt1K4UF-zuiTi-2">
          <mxGeometry x="140" y="80" width="120" height="60" as="geometry" />
        </mxCell>
        <mxCell id="xjq-RaSwt1K4UF-zuiTi-4" value="Join Node by API-Token" style="text;html=1;strokeColor=none;fillColor=none;align=left;verticalAlign=middle;whiteSpace=wrap;rounded=0;fontStyle=1" vertex="1" parent="1">
          <mxGeometry x="40" y="40" width="160" height="40" as="geometry" />
        </mxCell>
        <mxCell id="xjq-RaSwt1K4UF-zuiTi-32" value="" style="dashed=1;dashPattern=8 4;endArrow=blockThin;endFill=1;startArrow=oval;startFill=0;endSize=6;startSize=4;html=1;rounded=0;entryX=0.5;entryY=1;entryDx=0;entryDy=0;" edge="1" parent="1" target="xjq-RaSwt1K4UF-zuiTi-30">
          <mxGeometry width="160" relative="1" as="geometry">
            <mxPoint x="240" y="340" as="sourcePoint" />
            <mxPoint x="260" y="320" as="targetPoint" />
          </mxGeometry>
        </mxCell>
      </root>
    </mxGraphModel>
  </diagram>
</mxfile>
